<svg xmlns="http://www.w3.org/2000/svg" xmlns:xlink="http://www.w3.org/1999/xlink" contentStyleType="text/css" height="514px" preserveAspectRatio="none" style="width:557px;height:514px;background:#FFFFFF;" version="1.1" viewBox="0 0 557 514" width="557px" zoomAndPan="magnify"><defs/><g><!--cluster it.unimi.di.prog2.h09--><g id="cluster_it.unimi.di.prog2.h09"><path d="M16.5,4 L184.96,4 A3.75,3.75 0 0 1 187.46,6.5 L194.46,26.2969 L547.5,26.2969 A2.5,2.5 0 0 1 550,28.7969 L550,478.5 A2.5,2.5 0 0 1 547.5,481 L16.5,481 A2.5,2.5 0 0 1 14,478.5 L14,6.5 A2.5,2.5 0 0 1 16.5,4 " fill="none" style="stroke:#000000;stroke-width:1.5;"/><line style="stroke:#000000;stroke-width:1.5;" x1="14" x2="194.46" y1="26.2969" y2="26.2969"/><text fill="#000000" font-family="sans-serif" font-size="14" font-weight="bold" lengthAdjust="spacing" textLength="167.46" x="18" y="18.9951">it.unimi.di.prog2.h09</text></g><!--class IntSet--><a href="IntSet.html" target="_top" title="IntSet.html" xlink:actuate="onRequest" xlink:href="IntSet.html" xlink:show="new" xlink:title="IntSet.html" xlink:type="simple"><g id="elem_IntSet"><rect codeLine="6" fill="#F1F1F1" height="162.0781" id="IntSet" rx="2.5" ry="2.5" style="stroke:#181818;stroke-width:0.5;" width="153.2578" x="114.5" y="31"/><ellipse cx="166.1387" cy="47" fill="#ADD1B2" rx="11" ry="11" style="stroke:#181818;stroke-width:1.0;"/><path d="M169.1074,52.6406 Q168.5293,52.9375 167.8887,53.0781 Q167.248,53.2344 166.5449,53.2344 Q164.0449,53.2344 162.7168,51.5938 Q161.4043,49.9375 161.4043,46.8125 Q161.4043,43.6875 162.7168,42.0313 Q164.0449,40.375 166.5449,40.375 Q167.248,40.375 167.8887,40.5313 Q168.5449,40.6875 169.1074,40.9844 L169.1074,43.7031 Q168.4824,43.125 167.8887,42.8594 Q167.2949,42.5781 166.6699,42.5781 Q165.3262,42.5781 164.6387,43.6563 Q163.9512,44.7188 163.9512,46.8125 Q163.9512,48.9063 164.6387,49.9844 Q165.3262,51.0469 166.6699,51.0469 Q167.2949,51.0469 167.8887,50.7813 Q168.4824,50.5 169.1074,49.9219 L169.1074,52.6406 Z " fill="#000000"/><text fill="#000000" font-family="sans-serif" font-size="14" lengthAdjust="spacing" textLength="41.4805" x="186.6387" y="51.8467">IntSet</text><line style="stroke:#181818;stroke-width:0.5;" x1="115.5" x2="266.7578" y1="63" y2="63"/><rect fill="none" height="6" style="stroke:#C82930;stroke-width:1.0;" width="6" x="122.5" y="73.6484"/><text fill="#000000" font-family="sans-serif" font-size="14" lengthAdjust="spacing" textLength="127.2578" x="134.5" y="79.9951">els: List&lt;Integer&gt;</text><line style="stroke:#181818;stroke-width:0.5;" x1="115.5" x2="266.7578" y1="87.2969" y2="87.2969"/><rect fill="#F24D5C" height="6" style="stroke:#C82930;stroke-width:1.0;" width="6" x="122.5" y="97.9453"/><text fill="#000000" font-family="sans-serif" font-size="14" lengthAdjust="spacing" textLength="118.3711" x="134.5" y="104.292">getIndex(int): int</text><ellipse cx="125.5" cy="117.2422" fill="#84BE84" rx="3" ry="3" style="stroke:#038048;stroke-width:1.0;"/><text fill="#000000" font-family="sans-serif" font-size="14" lengthAdjust="spacing" textLength="107.8848" x="134.5" y="120.5889">insert(int): void</text><ellipse cx="125.5" cy="133.5391" fill="#84BE84" rx="3" ry="3" style="stroke:#038048;stroke-width:1.0;"/><text fill="#000000" font-family="sans-serif" font-size="14" lengthAdjust="spacing" textLength="121.4404" x="134.5" y="136.8857">remove(int): void</text><ellipse cx="125.5" cy="149.8359" fill="#84BE84" rx="3" ry="3" style="stroke:#038048;stroke-width:1.0;"/><text fill="#000000" font-family="sans-serif" font-size="14" lengthAdjust="spacing" textLength="118.501" x="134.5" y="153.1826">isIn(int): boolean</text><ellipse cx="125.5" cy="166.1328" fill="#84BE84" rx="3" ry="3" style="stroke:#038048;stroke-width:1.0;"/><text fill="#000000" font-family="sans-serif" font-size="14" lengthAdjust="spacing" textLength="65.4883" x="134.5" y="169.4795">size(): int</text><ellipse cx="125.5" cy="182.4297" fill="#84BE84" rx="3" ry="3" style="stroke:#038048;stroke-width:1.0;"/><text fill="#000000" font-family="sans-serif" font-size="14" lengthAdjust="spacing" textLength="87.9512" x="134.5" y="185.7764">choose(): int</text></g></a><!--class PolyClient--><a href="PolyClient.html" target="_top" title="PolyClient.html" xlink:actuate="onRequest" xlink:href="PolyClient.html" xlink:show="new" xlink:title="PolyClient.html" xlink:type="simple"><g id="elem_PolyClient"><rect codeLine="16" fill="#F1F1F1" height="64.2969" id="PolyClient" rx="2.5" ry="2.5" style="stroke:#181818;stroke-width:0.5;" width="163.4023" x="285.5" y="80"/><ellipse cx="328.2603" cy="96" fill="#ADD1B2" rx="11" ry="11" style="stroke:#181818;stroke-width:1.0;"/><path d="M331.229,101.6406 Q330.6509,101.9375 330.0103,102.0781 Q329.3696,102.2344 328.6665,102.2344 Q326.1665,102.2344 324.8384,100.5938 Q323.5259,98.9375 323.5259,95.8125 Q323.5259,92.6875 324.8384,91.0313 Q326.1665,89.375 328.6665,89.375 Q329.3696,89.375 330.0103,89.5313 Q330.6665,89.6875 331.229,89.9844 L331.229,92.7031 Q330.604,92.125 330.0103,91.8594 Q329.4165,91.5781 328.7915,91.5781 Q327.4478,91.5781 326.7603,92.6563 Q326.0728,93.7188 326.0728,95.8125 Q326.0728,97.9063 326.7603,98.9844 Q327.4478,100.0469 328.7915,100.0469 Q329.4165,100.0469 330.0103,99.7813 Q330.604,99.5 331.229,98.9219 L331.229,101.6406 Z " fill="#000000"/><text fill="#000000" font-family="sans-serif" font-size="14" lengthAdjust="spacing" textLength="69.7129" x="348.4292" y="100.8467">PolyClient</text><line style="stroke:#181818;stroke-width:0.5;" x1="286.5" x2="447.9023" y1="112" y2="112"/><line style="stroke:#181818;stroke-width:0.5;" x1="286.5" x2="447.9023" y1="120" y2="120"/><ellipse cx="296.5" cy="133.6484" fill="#84BE84" rx="3" ry="3" style="stroke:#038048;stroke-width:1.0;"/><text fill="#000000" font-family="sans-serif" font-size="14" lengthAdjust="spacing" text-decoration="underline" textLength="137.4023" x="305.5" y="136.9951">main(String[]): void</text></g></a><!--class Poly--><a href="Poly.html" target="_top" title="Poly.html" xlink:actuate="onRequest" xlink:href="Poly.html" xlink:show="new" xlink:title="Poly.html" xlink:type="simple"><g id="elem_Poly"><rect codeLine="20" fill="#F1F1F1" height="243.5625" id="Poly" rx="2.5" ry="2.5" style="stroke:#181818;stroke-width:0.5;" width="337.8213" x="22" y="229"/><ellipse cx="172.0693" cy="245" fill="#ADD1B2" rx="11" ry="11" style="stroke:#181818;stroke-width:1.0;"/><path d="M175.0381,250.6406 Q174.46,250.9375 173.8193,251.0781 Q173.1787,251.2344 172.4756,251.2344 Q169.9756,251.2344 168.6475,249.5938 Q167.335,247.9375 167.335,244.8125 Q167.335,241.6875 168.6475,240.0313 Q169.9756,238.375 172.4756,238.375 Q173.1787,238.375 173.8193,238.5313 Q174.4756,238.6875 175.0381,238.9844 L175.0381,241.7031 Q174.4131,241.125 173.8193,240.8594 Q173.2256,240.5781 172.6006,240.5781 Q171.2568,240.5781 170.5693,241.6563 Q169.8818,242.7188 169.8818,244.8125 Q169.8818,246.9063 170.5693,247.9844 Q171.2568,249.0469 172.6006,249.0469 Q173.2256,249.0469 173.8193,248.7813 Q174.4131,248.5 175.0381,247.9219 L175.0381,250.6406 Z " fill="#000000"/><text fill="#000000" font-family="sans-serif" font-size="14" lengthAdjust="spacing" textLength="29.1826" x="192.5693" y="249.8467">Poly</text><line style="stroke:#181818;stroke-width:0.5;" x1="23" x2="358.8213" y1="261" y2="261"/><rect fill="none" height="6" style="stroke:#C82930;stroke-width:1.0;" width="6" x="30" y="271.6484"/><text fill="#000000" font-family="sans-serif" font-size="14" lengthAdjust="spacing" textLength="111.5283" x="42" y="277.9951">coefficient: int[]</text><rect fill="none" height="6" style="stroke:#C82930;stroke-width:1.0;" width="6" x="30" y="287.9453"/><text fill="#000000" font-family="sans-serif" font-size="14" lengthAdjust="spacing" textLength="76.7881" x="42" y="294.292">degree: int</text><line style="stroke:#181818;stroke-width:0.5;" x1="23" x2="358.8213" y1="301.5938" y2="301.5938"/><ellipse cx="33" cy="315.2422" fill="#84BE84" rx="3" ry="3" style="stroke:#038048;stroke-width:1.0;"/><text fill="#000000" font-family="sans-serif" font-size="14" lengthAdjust="spacing" textLength="40.1064" x="42" y="318.5889">Poly()</text><ellipse cx="33" cy="331.5391" fill="#84BE84" rx="3" ry="3" style="stroke:#038048;stroke-width:1.0;"/><text fill="#000000" font-family="sans-serif" font-size="14" lengthAdjust="spacing" textLength="85.5107" x="42" y="334.8857">Poly(int, int)</text><rect fill="#F24D5C" height="6" style="stroke:#C82930;stroke-width:1.0;" width="6" x="30" y="344.8359"/><text fill="#000000" font-family="sans-serif" font-size="14" lengthAdjust="spacing" textLength="58.3584" x="42" y="351.1826">Poly(int)</text><ellipse cx="33" cy="364.1328" fill="#84BE84" rx="3" ry="3" style="stroke:#038048;stroke-width:1.0;"/><text fill="#000000" font-family="sans-serif" font-size="14" lengthAdjust="spacing" text-decoration="underline" textLength="311.8213" x="42" y="367.4795">monomialWithCoeffAndDegree(int, int): Poly</text><ellipse cx="33" cy="380.4297" fill="#84BE84" rx="3" ry="3" style="stroke:#038048;stroke-width:1.0;"/><text fill="#000000" font-family="sans-serif" font-size="14" lengthAdjust="spacing" textLength="87.7119" x="42" y="383.7764">degree(): int</text><ellipse cx="33" cy="396.7266" fill="#84BE84" rx="3" ry="3" style="stroke:#038048;stroke-width:1.0;"/><text fill="#000000" font-family="sans-serif" font-size="14" lengthAdjust="spacing" textLength="91.3281" x="42" y="400.0732">coeff(int): int</text><ellipse cx="33" cy="413.0234" fill="#84BE84" rx="3" ry="3" style="stroke:#038048;stroke-width:1.0;"/><text fill="#000000" font-family="sans-serif" font-size="14" lengthAdjust="spacing" textLength="104.8086" x="42" y="416.3701">add(Poly): Poly</text><ellipse cx="33" cy="429.3203" fill="#84BE84" rx="3" ry="3" style="stroke:#038048;stroke-width:1.0;"/><text fill="#000000" font-family="sans-serif" font-size="14" lengthAdjust="spacing" textLength="104.8564" x="42" y="432.667">mul(Poly): Poly</text><ellipse cx="33" cy="445.6172" fill="#84BE84" rx="3" ry="3" style="stroke:#038048;stroke-width:1.0;"/><text fill="#000000" font-family="sans-serif" font-size="14" lengthAdjust="spacing" textLength="103.5098" x="42" y="448.9639">sub(Poly): Poly</text><ellipse cx="33" cy="461.9141" fill="#84BE84" rx="3" ry="3" style="stroke:#038048;stroke-width:1.0;"/><text fill="#000000" font-family="sans-serif" font-size="14" lengthAdjust="spacing" textLength="91.8408" x="42" y="465.2607">minus(): Poly</text></g></a><!--class IntSetsClient--><a href="IntSetsClient.html" target="_top" title="IntSetsClient.html" xlink:actuate="onRequest" xlink:href="IntSetsClient.html" xlink:show="new" xlink:title="IntSetsClient.html" xlink:type="simple"><g id="elem_IntSetsClient"><rect codeLine="35" fill="#F1F1F1" height="64.2969" id="IntSetsClient" rx="2.5" ry="2.5" style="stroke:#181818;stroke-width:0.5;" width="163.4023" x="378.5" y="319"/><ellipse cx="412.4439" cy="335" fill="#ADD1B2" rx="11" ry="11" style="stroke:#181818;stroke-width:1.0;"/><path d="M415.4127,340.6406 Q414.8346,340.9375 414.1939,341.0781 Q413.5533,341.2344 412.8502,341.2344 Q410.3502,341.2344 409.0221,339.5938 Q407.7096,337.9375 407.7096,334.8125 Q407.7096,331.6875 409.0221,330.0313 Q410.3502,328.375 412.8502,328.375 Q413.5533,328.375 414.1939,328.5313 Q414.8502,328.6875 415.4127,328.9844 L415.4127,331.7031 Q414.7877,331.125 414.1939,330.8594 Q413.6002,330.5781 412.9752,330.5781 Q411.6314,330.5781 410.9439,331.6563 Q410.2564,332.7188 410.2564,334.8125 Q410.2564,336.9063 410.9439,337.9844 Q411.6314,339.0469 412.9752,339.0469 Q413.6002,339.0469 414.1939,338.7813 Q414.7877,338.5 415.4127,337.9219 L415.4127,340.6406 Z " fill="#000000"/><text fill="#000000" font-family="sans-serif" font-size="14" lengthAdjust="spacing" textLength="89.3047" x="430.6537" y="339.8467">IntSetsClient</text><line style="stroke:#181818;stroke-width:0.5;" x1="379.5" x2="540.9023" y1="351" y2="351"/><line style="stroke:#181818;stroke-width:0.5;" x1="379.5" x2="540.9023" y1="359" y2="359"/><ellipse cx="389.5" cy="372.6484" fill="#84BE84" rx="3" ry="3" style="stroke:#038048;stroke-width:1.0;"/><text fill="#000000" font-family="sans-serif" font-size="14" lengthAdjust="spacing" text-decoration="underline" textLength="137.4023" x="398.5" y="375.9951">main(String[]): void</text></g></a><text fill="#888888" font-family="sans-serif" font-size="10" lengthAdjust="spacing" textLength="3.1787" x="268.9106" y="492.2822">&#160;</text><text fill="#888888" font-family="sans-serif" font-size="10" lengthAdjust="spacing" textLength="183.0908" x="178.9546" y="503.9229">UMLDoclet 2.2.0, PlantUML 1.2024.6</text><!--SRC=[hPDDIyD048Rl_HNZGKXe3TARGGHfBmK5GSH3pM5DfidWPgRiRefQ-j_TJUj7QkB9FMmo-qpU-SWi0C39sgYoLg3LcpGER8rEiHfv0XQzZMjbb1C3QJfgJzSgVr4b0hcaOQefAIXP6ocdINL-0TkzKrYvLjR2Wjszrrakzoz9vMgTPTuFVgmpr3Q56xBkqhjXYUQgoqjq2oxmDI9sSGf-x_0niKNZ3dGZL7InmLesE8Z9BlW0dqKqAkvoI-yOzONDAn7x2-sEUt0d-csc2JdquTlexyNMEkKety6uLiJHlJF4vJ8xJhmto45-eCcvu6f5UGZT9hpCkhp0qY3sb1aqexZdp7jEWdkNdNsoUAWmOQb9wKTorImaTSt5l0t-hPYs1NLZxXFi_nD1PcWwL554GQrNj6xqCBJDynzV4ZSsEaQx_XjWlmQWO__73EpQFVTgQ60b4XvF_71xCvTS-xitJQR9-GJkj6BdJ-5qWyQIS1H_0000]--></g></svg>