<svg xmlns="http://www.w3.org/2000/svg" xmlns:xlink="http://www.w3.org/1999/xlink" contentStyleType="text/css" height="220px" preserveAspectRatio="none" style="width:341px;height:220px;background:#FFFFFF;" version="1.1" viewBox="0 0 341 220" width="341px" zoomAndPan="magnify"><defs/><g><!--cluster it.unimi.di.prog2.e06--><g id="cluster_it.unimi.di.prog2.e06"><path d="M16.5,4 L184.4883,4 A3.75,3.75 0 0 1 186.9883,6.5 L193.9883,26.2969 L331.5,26.2969 A2.5,2.5 0 0 1 334,28.7969 L334,184.5 A2.5,2.5 0 0 1 331.5,187 L16.5,187 A2.5,2.5 0 0 1 14,184.5 L14,6.5 A2.5,2.5 0 0 1 16.5,4 " fill="none" style="stroke:#000000;stroke-width:1.5;"/><line style="stroke:#000000;stroke-width:1.5;" x1="14" x2="193.9883" y1="26.2969" y2="26.2969"/><text fill="#000000" font-family="sans-serif" font-size="14" font-weight="bold" lengthAdjust="spacing" textLength="166.9883" x="18" y="18.9951">it.unimi.di.prog2.e06</text></g><!--class CombineClient--><a href="CombineClient.html" target="_top" title="CombineClient.html" xlink:actuate="onRequest" xlink:href="CombineClient.html" xlink:show="new" xlink:title="CombineClient.html" xlink:type="simple"><g id="elem_CombineClient"><rect codeLine="6" fill="#F1F1F1" height="64.2969" id="CombineClient" rx="2.5" ry="2.5" style="stroke:#181818;stroke-width:0.5;" width="181.9619" x="22" y="31"/><ellipse cx="58.2357" cy="47" fill="#ADD1B2" rx="11" ry="11" style="stroke:#181818;stroke-width:1.0;"/><path d="M61.2044,52.6406 Q60.6263,52.9375 59.9857,53.0781 Q59.3451,53.2344 58.6419,53.2344 Q56.1419,53.2344 54.8138,51.5938 Q53.5013,49.9375 53.5013,46.8125 Q53.5013,43.6875 54.8138,42.0313 Q56.1419,40.375 58.6419,40.375 Q59.3451,40.375 59.9857,40.5313 Q60.6419,40.6875 61.2044,40.9844 L61.2044,43.7031 Q60.5794,43.125 59.9857,42.8594 Q59.3919,42.5781 58.7669,42.5781 Q57.4232,42.5781 56.7357,43.6563 Q56.0482,44.7188 56.0482,46.8125 Q56.0482,48.9063 56.7357,49.9844 Q57.4232,51.0469 58.7669,51.0469 Q59.3919,51.0469 59.9857,50.7813 Q60.5794,50.5 61.2044,49.9219 L61.2044,52.6406 Z " fill="#000000"/><text fill="#000000" font-family="sans-serif" font-size="14" lengthAdjust="spacing" textLength="102.7715" x="76.9547" y="51.8467">CombineClient</text><line style="stroke:#181818;stroke-width:0.5;" x1="23" x2="202.9619" y1="63" y2="63"/><line style="stroke:#181818;stroke-width:0.5;" x1="23" x2="202.9619" y1="71" y2="71"/><rect fill="#F24D5C" height="6" style="stroke:#C82930;stroke-width:1.0;" width="6" x="30" y="81.6484"/><text fill="#000000" font-family="sans-serif" font-size="14" lengthAdjust="spacing" text-decoration="underline" textLength="155.9619" x="42" y="87.9951">parseInts(String): int[]</text></g></a><!--class SumClient--><a href="SumClient.html" target="_top" title="SumClient.html" xlink:actuate="onRequest" xlink:href="SumClient.html" xlink:show="new" xlink:title="SumClient.html" xlink:type="simple"><g id="elem_SumClient"><rect codeLine="10" fill="#F1F1F1" height="48" id="SumClient" rx="2.5" ry="2.5" style="stroke:#181818;stroke-width:0.5;" width="103.9277" x="222" y="39"/><ellipse cx="237" cy="55" fill="#ADD1B2" rx="11" ry="11" style="stroke:#181818;stroke-width:1.0;"/><path d="M239.9688,60.6406 Q239.3906,60.9375 238.75,61.0781 Q238.1094,61.2344 237.4063,61.2344 Q234.9063,61.2344 233.5781,59.5938 Q232.2656,57.9375 232.2656,54.8125 Q232.2656,51.6875 233.5781,50.0313 Q234.9063,48.375 237.4063,48.375 Q238.1094,48.375 238.75,48.5313 Q239.4063,48.6875 239.9688,48.9844 L239.9688,51.7031 Q239.3438,51.125 238.75,50.8594 Q238.1563,50.5781 237.5313,50.5781 Q236.1875,50.5781 235.5,51.6563 Q234.8125,52.7188 234.8125,54.8125 Q234.8125,56.9063 235.5,57.9844 Q236.1875,59.0469 237.5313,59.0469 Q238.1563,59.0469 238.75,58.7813 Q239.3438,58.5 239.9688,57.9219 L239.9688,60.6406 Z " fill="#000000"/><text fill="#000000" font-family="sans-serif" font-size="14" lengthAdjust="spacing" textLength="71.9277" x="251" y="59.8467">SumClient</text><line style="stroke:#181818;stroke-width:0.5;" x1="223" x2="324.9277" y1="71" y2="71"/><line style="stroke:#181818;stroke-width:0.5;" x1="223" x2="324.9277" y1="79" y2="79"/></g></a><!--class SearchClient--><a href="SearchClient.html" target="_top" title="SearchClient.html" xlink:actuate="onRequest" xlink:href="SearchClient.html" xlink:show="new" xlink:title="SearchClient.html" xlink:type="simple"><g id="elem_SearchClient"><rect codeLine="12" fill="#F1F1F1" height="48" id="SearchClient" rx="2.5" ry="2.5" style="stroke:#181818;stroke-width:0.5;" width="120.9355" x="52.5" y="131"/><ellipse cx="67.5" cy="147" fill="#ADD1B2" rx="11" ry="11" style="stroke:#181818;stroke-width:1.0;"/><path d="M70.4688,152.6406 Q69.8906,152.9375 69.25,153.0781 Q68.6094,153.2344 67.9063,153.2344 Q65.4063,153.2344 64.0781,151.5938 Q62.7656,149.9375 62.7656,146.8125 Q62.7656,143.6875 64.0781,142.0313 Q65.4063,140.375 67.9063,140.375 Q68.6094,140.375 69.25,140.5313 Q69.9063,140.6875 70.4688,140.9844 L70.4688,143.7031 Q69.8438,143.125 69.25,142.8594 Q68.6563,142.5781 68.0313,142.5781 Q66.6875,142.5781 66,143.6563 Q65.3125,144.7188 65.3125,146.8125 Q65.3125,148.9063 66,149.9844 Q66.6875,151.0469 68.0313,151.0469 Q68.6563,151.0469 69.25,150.7813 Q69.8438,150.5 70.4688,149.9219 L70.4688,152.6406 Z " fill="#000000"/><text fill="#000000" font-family="sans-serif" font-size="14" lengthAdjust="spacing" textLength="88.9355" x="81.5" y="151.8467">SearchClient</text><line style="stroke:#181818;stroke-width:0.5;" x1="53.5" x2="172.4355" y1="163" y2="163"/><line style="stroke:#181818;stroke-width:0.5;" x1="53.5" x2="172.4355" y1="171" y2="171"/></g></a><text fill="#888888" font-family="sans-serif" font-size="10" lengthAdjust="spacing" textLength="3.1787" x="160.9106" y="198.2822">&#160;</text><text fill="#888888" font-family="sans-serif" font-size="10" lengthAdjust="spacing" textLength="183.0908" x="70.9546" y="209.9229">UMLDoclet 2.2.0, PlantUML 1.2024.6</text><!--SRC=[PL1DQm913BtxAz93GQ4EieSUzcel1Gi5wMdTGnpJDNGciyna1P7zxuvMrgySahoNztWG082NDcBZ4HpkGwUGF2aAZl854cLCBKRK4A4iHsUsHVk73G6hwOGzcmsRDeQcC3HxXyE_w5JMOKem3txDGdF790fLTOVDLhshw-o2cpeaHMNRmpHd9_eKJUEbHfPcKWABLlKWxn_ZbfqVeeRz4lEa9OnsUvNVm3j7V-usqnJXDuJJMCdFr-8ZM9T_L9Z2pDxWsw5ePk5rHp5naF7a2000]--></g></svg>