<svg xmlns="http://www.w3.org/2000/svg" xmlns:xlink="http://www.w3.org/1999/xlink" contentStyleType="text/css" height="432px" preserveAspectRatio="none" style="width:599px;height:432px;background:#FFFFFF;" version="1.1" viewBox="0 0 599 432" width="599px" zoomAndPan="magnify"><defs/><g><!--cluster it.unimi.di.prog2.h08--><g id="cluster_it.unimi.di.prog2.h08"><path d="M16.5,4 L184.96,4 A3.75,3.75 0 0 1 187.46,6.5 L194.46,26.2969 L589.5,26.2969 A2.5,2.5 0 0 1 592,28.7969 L592,396.5 A2.5,2.5 0 0 1 589.5,399 L16.5,399 A2.5,2.5 0 0 1 14,396.5 L14,6.5 A2.5,2.5 0 0 1 16.5,4 " fill="none" style="stroke:#000000;stroke-width:1.5;"/><line style="stroke:#000000;stroke-width:1.5;" x1="14" x2="194.46" y1="26.2969" y2="26.2969"/><text fill="#000000" font-family="sans-serif" font-size="14" font-weight="bold" lengthAdjust="spacing" textLength="167.46" x="18" y="18.9951">it.unimi.di.prog2.h08</text></g><!--class Polys--><a href="Polys.html" target="_top" title="Polys.html" xlink:actuate="onRequest" xlink:href="Polys.html" xlink:show="new" xlink:title="Polys.html" xlink:type="simple"><g id="elem_Polys"><rect codeLine="6" fill="#F1F1F1" height="64.2969" id="Polys" rx="2.5" ry="2.5" style="stroke:#181818;stroke-width:0.5;" width="127.0898" x="110.5" y="63.5"/><ellipse cx="151.876" cy="79.5" fill="#ADD1B2" rx="11" ry="11" style="stroke:#181818;stroke-width:1.0;"/><path d="M154.8447,85.1406 Q154.2666,85.4375 153.626,85.5781 Q152.9854,85.7344 152.2822,85.7344 Q149.7822,85.7344 148.4541,84.0938 Q147.1416,82.4375 147.1416,79.3125 Q147.1416,76.1875 148.4541,74.5313 Q149.7822,72.875 152.2822,72.875 Q152.9854,72.875 153.626,73.0313 Q154.2822,73.1875 154.8447,73.4844 L154.8447,76.2031 Q154.2197,75.625 153.626,75.3594 Q153.0322,75.0781 152.4072,75.0781 Q151.0635,75.0781 150.376,76.1563 Q149.6885,77.2188 149.6885,79.3125 Q149.6885,81.4063 150.376,82.4844 Q151.0635,83.5469 152.4072,83.5469 Q153.0322,83.5469 153.626,83.2813 Q154.2197,83 154.8447,82.4219 L154.8447,85.1406 Z " fill="#000000"/><text fill="#000000" font-family="sans-serif" font-size="14" lengthAdjust="spacing" textLength="36.4766" x="171.7373" y="84.3467">Polys</text><line style="stroke:#181818;stroke-width:0.5;" x1="111.5" x2="236.5898" y1="95.5" y2="95.5"/><line style="stroke:#181818;stroke-width:0.5;" x1="111.5" x2="236.5898" y1="103.5" y2="103.5"/><ellipse cx="121.5" cy="117.1484" fill="#84BE84" rx="3" ry="3" style="stroke:#038048;stroke-width:1.0;"/><text fill="#000000" font-family="sans-serif" font-size="14" lengthAdjust="spacing" text-decoration="underline" textLength="101.0898" x="130.5" y="120.4951">diff(Poly): Poly</text></g></a><!--class IntSetsClient--><a href="IntSetsClient.html" target="_top" title="IntSetsClient.html" xlink:actuate="onRequest" xlink:href="IntSetsClient.html" xlink:show="new" xlink:title="IntSetsClient.html" xlink:type="simple"><g id="elem_IntSetsClient"><rect codeLine="10" fill="#F1F1F1" height="64.2969" id="IntSetsClient" rx="2.5" ry="2.5" style="stroke:#181818;stroke-width:0.5;" width="163.4023" x="255.5" y="63.5"/><ellipse cx="289.4439" cy="79.5" fill="#ADD1B2" rx="11" ry="11" style="stroke:#181818;stroke-width:1.0;"/><path d="M292.4127,85.1406 Q291.8346,85.4375 291.1939,85.5781 Q290.5533,85.7344 289.8502,85.7344 Q287.3502,85.7344 286.0221,84.0938 Q284.7096,82.4375 284.7096,79.3125 Q284.7096,76.1875 286.0221,74.5313 Q287.3502,72.875 289.8502,72.875 Q290.5533,72.875 291.1939,73.0313 Q291.8502,73.1875 292.4127,73.4844 L292.4127,76.2031 Q291.7877,75.625 291.1939,75.3594 Q290.6002,75.0781 289.9752,75.0781 Q288.6314,75.0781 287.9439,76.1563 Q287.2564,77.2188 287.2564,79.3125 Q287.2564,81.4063 287.9439,82.4844 Q288.6314,83.5469 289.9752,83.5469 Q290.6002,83.5469 291.1939,83.2813 Q291.7877,83 292.4127,82.4219 L292.4127,85.1406 Z " fill="#000000"/><text fill="#000000" font-family="sans-serif" font-size="14" lengthAdjust="spacing" textLength="89.3047" x="307.6537" y="84.3467">IntSetsClient</text><line style="stroke:#181818;stroke-width:0.5;" x1="256.5" x2="417.9023" y1="95.5" y2="95.5"/><line style="stroke:#181818;stroke-width:0.5;" x1="256.5" x2="417.9023" y1="103.5" y2="103.5"/><ellipse cx="266.5" cy="117.1484" fill="#84BE84" rx="3" ry="3" style="stroke:#038048;stroke-width:1.0;"/><text fill="#000000" font-family="sans-serif" font-size="14" lengthAdjust="spacing" text-decoration="underline" textLength="137.4023" x="275.5" y="120.4951">main(String[]): void</text></g></a><!--class IntSet--><a href="IntSet.html" target="_top" title="IntSet.html" xlink:actuate="onRequest" xlink:href="IntSet.html" xlink:show="new" xlink:title="IntSet.html" xlink:type="simple"><g id="elem_IntSet"><rect codeLine="14" fill="#F1F1F1" height="129.4844" id="IntSet" rx="2.5" ry="2.5" style="stroke:#181818;stroke-width:0.5;" width="147.4404" x="436.5" y="31"/><ellipse cx="485.23" cy="47" fill="#ADD1B2" rx="11" ry="11" style="stroke:#181818;stroke-width:1.0;"/><path d="M488.1987,52.6406 Q487.6206,52.9375 486.98,53.0781 Q486.3394,53.2344 485.6362,53.2344 Q483.1362,53.2344 481.8081,51.5938 Q480.4956,49.9375 480.4956,46.8125 Q480.4956,43.6875 481.8081,42.0313 Q483.1362,40.375 485.6362,40.375 Q486.3394,40.375 486.98,40.5313 Q487.6362,40.6875 488.1987,40.9844 L488.1987,43.7031 Q487.5737,43.125 486.98,42.8594 Q486.3862,42.5781 485.7612,42.5781 Q484.4175,42.5781 483.73,43.6563 Q483.0425,44.7188 483.0425,46.8125 Q483.0425,48.9063 483.73,49.9844 Q484.4175,51.0469 485.7612,51.0469 Q486.3862,51.0469 486.98,50.7813 Q487.5737,50.5 488.1987,49.9219 L488.1987,52.6406 Z " fill="#000000"/><text fill="#000000" font-family="sans-serif" font-size="14" lengthAdjust="spacing" textLength="41.4805" x="505.73" y="51.8467">IntSet</text><line style="stroke:#181818;stroke-width:0.5;" x1="437.5" x2="582.9404" y1="63" y2="63"/><line style="stroke:#181818;stroke-width:0.5;" x1="437.5" x2="582.9404" y1="71" y2="71"/><ellipse cx="447.5" cy="84.6484" fill="#84BE84" rx="3" ry="3" style="stroke:#038048;stroke-width:1.0;"/><text fill="#000000" font-family="sans-serif" font-size="14" lengthAdjust="spacing" textLength="107.8848" x="456.5" y="87.9951">insert(int): void</text><ellipse cx="447.5" cy="100.9453" fill="#84BE84" rx="3" ry="3" style="stroke:#038048;stroke-width:1.0;"/><text fill="#000000" font-family="sans-serif" font-size="14" lengthAdjust="spacing" textLength="121.4404" x="456.5" y="104.292">remove(int): void</text><ellipse cx="447.5" cy="117.2422" fill="#84BE84" rx="3" ry="3" style="stroke:#038048;stroke-width:1.0;"/><text fill="#000000" font-family="sans-serif" font-size="14" lengthAdjust="spacing" textLength="118.501" x="456.5" y="120.5889">isIn(int): boolean</text><ellipse cx="447.5" cy="133.5391" fill="#84BE84" rx="3" ry="3" style="stroke:#038048;stroke-width:1.0;"/><text fill="#000000" font-family="sans-serif" font-size="14" lengthAdjust="spacing" textLength="65.4883" x="456.5" y="136.8857">size(): int</text><ellipse cx="447.5" cy="149.8359" fill="#84BE84" rx="3" ry="3" style="stroke:#038048;stroke-width:1.0;"/><text fill="#000000" font-family="sans-serif" font-size="14" lengthAdjust="spacing" textLength="87.9512" x="456.5" y="153.1826">choose(): int</text></g></a><!--class Poly--><a href="Poly.html" target="_top" title="Poly.html" xlink:actuate="onRequest" xlink:href="Poly.html" xlink:show="new" xlink:title="Poly.html" xlink:type="simple"><g id="elem_Poly"><rect codeLine="22" fill="#F1F1F1" height="194.6719" id="Poly" rx="2.5" ry="2.5" style="stroke:#181818;stroke-width:0.5;" width="337.8213" x="22" y="196"/><ellipse cx="172.0693" cy="212" fill="#ADD1B2" rx="11" ry="11" style="stroke:#181818;stroke-width:1.0;"/><path d="M175.0381,217.6406 Q174.46,217.9375 173.8193,218.0781 Q173.1787,218.2344 172.4756,218.2344 Q169.9756,218.2344 168.6475,216.5938 Q167.335,214.9375 167.335,211.8125 Q167.335,208.6875 168.6475,207.0313 Q169.9756,205.375 172.4756,205.375 Q173.1787,205.375 173.8193,205.5313 Q174.4756,205.6875 175.0381,205.9844 L175.0381,208.7031 Q174.4131,208.125 173.8193,207.8594 Q173.2256,207.5781 172.6006,207.5781 Q171.2568,207.5781 170.5693,208.6563 Q169.8818,209.7188 169.8818,211.8125 Q169.8818,213.9063 170.5693,214.9844 Q171.2568,216.0469 172.6006,216.0469 Q173.2256,216.0469 173.8193,215.7813 Q174.4131,215.5 175.0381,214.9219 L175.0381,217.6406 Z " fill="#000000"/><text fill="#000000" font-family="sans-serif" font-size="14" lengthAdjust="spacing" textLength="29.1826" x="192.5693" y="216.8467">Poly</text><line style="stroke:#181818;stroke-width:0.5;" x1="23" x2="358.8213" y1="228" y2="228"/><line style="stroke:#181818;stroke-width:0.5;" x1="23" x2="358.8213" y1="236" y2="236"/><ellipse cx="33" cy="249.6484" fill="#84BE84" rx="3" ry="3" style="stroke:#038048;stroke-width:1.0;"/><text fill="#000000" font-family="sans-serif" font-size="14" lengthAdjust="spacing" textLength="40.1064" x="42" y="252.9951">Poly()</text><ellipse cx="33" cy="265.9453" fill="#84BE84" rx="3" ry="3" style="stroke:#038048;stroke-width:1.0;"/><text fill="#000000" font-family="sans-serif" font-size="14" lengthAdjust="spacing" textLength="85.5107" x="42" y="269.292">Poly(int, int)</text><ellipse cx="33" cy="282.2422" fill="#84BE84" rx="3" ry="3" style="stroke:#038048;stroke-width:1.0;"/><text fill="#000000" font-family="sans-serif" font-size="14" lengthAdjust="spacing" text-decoration="underline" textLength="311.8213" x="42" y="285.5889">monomialWithCoeffAndDegree(int, int): Poly</text><ellipse cx="33" cy="298.5391" fill="#84BE84" rx="3" ry="3" style="stroke:#038048;stroke-width:1.0;"/><text fill="#000000" font-family="sans-serif" font-size="14" lengthAdjust="spacing" textLength="87.7119" x="42" y="301.8857">degree(): int</text><ellipse cx="33" cy="314.8359" fill="#84BE84" rx="3" ry="3" style="stroke:#038048;stroke-width:1.0;"/><text fill="#000000" font-family="sans-serif" font-size="14" lengthAdjust="spacing" textLength="91.3281" x="42" y="318.1826">coeff(int): int</text><ellipse cx="33" cy="331.1328" fill="#84BE84" rx="3" ry="3" style="stroke:#038048;stroke-width:1.0;"/><text fill="#000000" font-family="sans-serif" font-size="14" lengthAdjust="spacing" textLength="104.8086" x="42" y="334.4795">add(Poly): Poly</text><ellipse cx="33" cy="347.4297" fill="#84BE84" rx="3" ry="3" style="stroke:#038048;stroke-width:1.0;"/><text fill="#000000" font-family="sans-serif" font-size="14" lengthAdjust="spacing" textLength="104.8564" x="42" y="350.7764">mul(Poly): Poly</text><ellipse cx="33" cy="363.7266" fill="#84BE84" rx="3" ry="3" style="stroke:#038048;stroke-width:1.0;"/><text fill="#000000" font-family="sans-serif" font-size="14" lengthAdjust="spacing" textLength="103.5098" x="42" y="367.0732">sub(Poly): Poly</text><ellipse cx="33" cy="380.0234" fill="#84BE84" rx="3" ry="3" style="stroke:#038048;stroke-width:1.0;"/><text fill="#000000" font-family="sans-serif" font-size="14" lengthAdjust="spacing" textLength="91.8408" x="42" y="383.3701">minus(): Poly</text></g></a><!--class IntSets--><a href="IntSets.html" target="_top" title="IntSets.html" xlink:actuate="onRequest" xlink:href="IntSets.html" xlink:show="new" xlink:title="IntSets.html" xlink:type="simple"><g id="elem_IntSets"><rect codeLine="34" fill="#F1F1F1" height="64.2969" id="IntSets" rx="2.5" ry="2.5" style="stroke:#181818;stroke-width:0.5;" width="204.9922" x="378.5" y="261.5"/><ellipse cx="452.3589" cy="277.5" fill="#ADD1B2" rx="11" ry="11" style="stroke:#181818;stroke-width:1.0;"/><path d="M455.3276,283.1406 Q454.7495,283.4375 454.1089,283.5781 Q453.4683,283.7344 452.7651,283.7344 Q450.2651,283.7344 448.937,282.0938 Q447.6245,280.4375 447.6245,277.3125 Q447.6245,274.1875 448.937,272.5313 Q450.2651,270.875 452.7651,270.875 Q453.4683,270.875 454.1089,271.0313 Q454.7651,271.1875 455.3276,271.4844 L455.3276,274.2031 Q454.7026,273.625 454.1089,273.3594 Q453.5151,273.0781 452.8901,273.0781 Q451.5464,273.0781 450.8589,274.1563 Q450.1714,275.2188 450.1714,277.3125 Q450.1714,279.4063 450.8589,280.4844 Q451.5464,281.5469 452.8901,281.5469 Q453.5151,281.5469 454.1089,281.2813 Q454.7026,281 455.3276,280.4219 L455.3276,283.1406 Z " fill="#000000"/><text fill="#000000" font-family="sans-serif" font-size="14" lengthAdjust="spacing" textLength="48.7744" x="472.8589" y="282.3467">IntSets</text><line style="stroke:#181818;stroke-width:0.5;" x1="379.5" x2="582.4922" y1="293.5" y2="293.5"/><line style="stroke:#181818;stroke-width:0.5;" x1="379.5" x2="582.4922" y1="301.5" y2="301.5"/><ellipse cx="389.5" cy="315.1484" fill="#84BE84" rx="3" ry="3" style="stroke:#038048;stroke-width:1.0;"/><text fill="#000000" font-family="sans-serif" font-size="14" lengthAdjust="spacing" text-decoration="underline" textLength="178.9922" x="398.5" y="318.4951">getElements(int[]): IntSet</text></g></a><text fill="#888888" font-family="sans-serif" font-size="10" lengthAdjust="spacing" textLength="3.1787" x="289.9106" y="410.2822">&#160;</text><text fill="#888888" font-family="sans-serif" font-size="10" lengthAdjust="spacing" textLength="183.0908" x="199.9546" y="421.9229">UMLDoclet 2.2.0, PlantUML 1.2024.6</text><!--SRC=[ZPB1Qy8m5CRl_XLlXq6BKiJJy3Pq1s43GSOEpaDiNzl7ahoIf8AJ_kzBg-YixLmE3SdlUzzhaWy0uA4m8bC2fDXpwS0gT4ABWITWqQ-n44OuDZ2T3fhTGiHV8aCW5vMQ54K9HONXR1BbuoSu74NrYAMm5fOiznRMwsQESgVaPkDLy6iSh1EEuWg62QLfK2l3QLDubbLjsuLsAtHs9Wcry_PNwtjjb20Th9mXdQqtljMEARdNwjoZstn8sg9n0MdNDcomGSKxxCLa5_e4jymIXRxcbhunyD1Bha6SCziRL7MzmkaHUlw_Ha7OiUTzHxLvs7UPh5cHa1_ayXbZcZxhP8wPGRoKjbwpCK-Eciv3rJQdwxY18aaw8z90LSf-QClj7vMaInlyDtUNnDtBMeRkHQBogRJrYPgy7KlRJQhc6tib6aYPw-bJlx-zpZcMFe2JQ1ADHx2KGZk_2uyxD9PO1-4F]--></g></svg>