<svg xmlns="http://www.w3.org/2000/svg" xmlns:xlink="http://www.w3.org/1999/xlink" contentStyleType="text/css" height="286px" preserveAspectRatio="none" style="width:519px;height:286px;background:#FFFFFF;" version="1.1" viewBox="0 0 519 286" width="519px" zoomAndPan="magnify"><defs/><g><!--cluster it.unimi.di.prog2.h05--><g id="cluster_it.unimi.di.prog2.h05"><path d="M16.5,4 L184.96,4 A3.75,3.75 0 0 1 187.46,6.5 L194.46,26.2969 L509.5,26.2969 A2.5,2.5 0 0 1 512,28.7969 L512,250.5 A2.5,2.5 0 0 1 509.5,253 L16.5,253 A2.5,2.5 0 0 1 14,250.5 L14,6.5 A2.5,2.5 0 0 1 16.5,4 " fill="none" style="stroke:#000000;stroke-width:1.5;"/><line style="stroke:#000000;stroke-width:1.5;" x1="14" x2="194.46" y1="26.2969" y2="26.2969"/><text fill="#000000" font-family="sans-serif" font-size="14" font-weight="bold" lengthAdjust="spacing" textLength="167.46" x="18" y="18.9951">it.unimi.di.prog2.h05</text></g><!--class GrigliaIrregolare4--><a href="GrigliaIrregolare4.html" target="_top" title="GrigliaIrregolare4.html" xlink:actuate="onRequest" xlink:href="GrigliaIrregolare4.html" xlink:show="new" xlink:title="GrigliaIrregolare4.html" xlink:type="simple"><g id="elem_GrigliaIrregolare4"><rect codeLine="6" fill="#F1F1F1" height="96.8906" id="GrigliaIrregolare4" rx="2.5" ry="2.5" style="stroke:#181818;stroke-width:0.5;" width="299.7861" x="22" y="31"/><ellipse cx="106.0479" cy="47" fill="#ADD1B2" rx="11" ry="11" style="stroke:#181818;stroke-width:1.0;"/><path d="M109.0166,52.6406 Q108.4385,52.9375 107.7979,53.0781 Q107.1572,53.2344 106.4541,53.2344 Q103.9541,53.2344 102.626,51.5938 Q101.3135,49.9375 101.3135,46.8125 Q101.3135,43.6875 102.626,42.0313 Q103.9541,40.375 106.4541,40.375 Q107.1572,40.375 107.7979,40.5313 Q108.4541,40.6875 109.0166,40.9844 L109.0166,43.7031 Q108.3916,43.125 107.7979,42.8594 Q107.2041,42.5781 106.5791,42.5781 Q105.2354,42.5781 104.5479,43.6563 Q103.8604,44.7188 103.8604,46.8125 Q103.8604,48.9063 104.5479,49.9844 Q105.2354,51.0469 106.5791,51.0469 Q107.2041,51.0469 107.7979,50.7813 Q108.3916,50.5 109.0166,49.9219 L109.0166,52.6406 Z " fill="#000000"/><text fill="#000000" font-family="sans-serif" font-size="14" lengthAdjust="spacing" textLength="123.1904" x="126.5479" y="51.8467">GrigliaIrregolare4</text><line style="stroke:#181818;stroke-width:0.5;" x1="23" x2="320.7861" y1="63" y2="63"/><line style="stroke:#181818;stroke-width:0.5;" x1="23" x2="320.7861" y1="71" y2="71"/><ellipse cx="33" cy="84.6484" fill="#84BE84" rx="3" ry="3" style="stroke:#038048;stroke-width:1.0;"/><text fill="#000000" font-family="sans-serif" font-size="14" lengthAdjust="spacing" text-decoration="underline" textLength="208.5576" x="42" y="87.9951">appartiene(int[], int): boolean</text><ellipse cx="33" cy="100.9453" fill="#84BE84" rx="3" ry="3" style="stroke:#038048;stroke-width:1.0;"/><text fill="#000000" font-family="sans-serif" font-size="14" lengthAdjust="spacing" text-decoration="underline" textLength="273.7861" x="42" y="104.292">appartiene(int[], int[], int, int): boolean</text><ellipse cx="33" cy="117.2422" fill="#84BE84" rx="3" ry="3" style="stroke:#038048;stroke-width:1.0;"/><text fill="#000000" font-family="sans-serif" font-size="14" lengthAdjust="spacing" text-decoration="underline" textLength="137.4023" x="42" y="120.5889">main(String[]): void</text></g></a><!--class GrigliaIrregolare1--><a href="GrigliaIrregolare1.html" target="_top" title="GrigliaIrregolare1.html" xlink:actuate="onRequest" xlink:href="GrigliaIrregolare1.html" xlink:show="new" xlink:title="GrigliaIrregolare1.html" xlink:type="simple"><g id="elem_GrigliaIrregolare1"><rect codeLine="12" fill="#F1F1F1" height="64.2969" id="GrigliaIrregolare1" rx="2.5" ry="2.5" style="stroke:#181818;stroke-width:0.5;" width="163.4023" x="340.5" y="47.5"/><ellipse cx="359.1954" cy="63.5" fill="#ADD1B2" rx="11" ry="11" style="stroke:#181818;stroke-width:1.0;"/><path d="M362.1641,69.1406 Q361.586,69.4375 360.9454,69.5781 Q360.3047,69.7344 359.6016,69.7344 Q357.1016,69.7344 355.7735,68.0938 Q354.461,66.4375 354.461,63.3125 Q354.461,60.1875 355.7735,58.5313 Q357.1016,56.875 359.6016,56.875 Q360.3047,56.875 360.9454,57.0313 Q361.6016,57.1875 362.1641,57.4844 L362.1641,60.2031 Q361.5391,59.625 360.9454,59.3594 Q360.3516,59.0781 359.7266,59.0781 Q358.3829,59.0781 357.6954,60.1563 Q357.0079,61.2188 357.0079,63.3125 Q357.0079,65.4063 357.6954,66.4844 Q358.3829,67.5469 359.7266,67.5469 Q360.3516,67.5469 360.9454,67.2813 Q361.5391,67 362.1641,66.4219 L362.1641,69.1406 Z " fill="#000000"/><text fill="#000000" font-family="sans-serif" font-size="14" lengthAdjust="spacing" textLength="123.1904" x="374.0166" y="68.3467">GrigliaIrregolare1</text><line style="stroke:#181818;stroke-width:0.5;" x1="341.5" x2="502.9023" y1="79.5" y2="79.5"/><line style="stroke:#181818;stroke-width:0.5;" x1="341.5" x2="502.9023" y1="87.5" y2="87.5"/><ellipse cx="351.5" cy="101.1484" fill="#84BE84" rx="3" ry="3" style="stroke:#038048;stroke-width:1.0;"/><text fill="#000000" font-family="sans-serif" font-size="14" lengthAdjust="spacing" text-decoration="underline" textLength="137.4023" x="360.5" y="104.4951">main(String[]): void</text></g></a><!--class GrigliaIrregolare2--><a href="GrigliaIrregolare2.html" target="_top" title="GrigliaIrregolare2.html" xlink:actuate="onRequest" xlink:href="GrigliaIrregolare2.html" xlink:show="new" xlink:title="GrigliaIrregolare2.html" xlink:type="simple"><g id="elem_GrigliaIrregolare2"><rect codeLine="16" fill="#F1F1F1" height="64.2969" id="GrigliaIrregolare2" rx="2.5" ry="2.5" style="stroke:#181818;stroke-width:0.5;" width="163.4023" x="22.5" y="172.5"/><ellipse cx="41.1954" cy="188.5" fill="#ADD1B2" rx="11" ry="11" style="stroke:#181818;stroke-width:1.0;"/><path d="M44.1641,194.1406 Q43.586,194.4375 42.9454,194.5781 Q42.3047,194.7344 41.6016,194.7344 Q39.1016,194.7344 37.7735,193.0938 Q36.461,191.4375 36.461,188.3125 Q36.461,185.1875 37.7735,183.5313 Q39.1016,181.875 41.6016,181.875 Q42.3047,181.875 42.9454,182.0313 Q43.6016,182.1875 44.1641,182.4844 L44.1641,185.2031 Q43.5391,184.625 42.9454,184.3594 Q42.3516,184.0781 41.7266,184.0781 Q40.3829,184.0781 39.6954,185.1563 Q39.0079,186.2188 39.0079,188.3125 Q39.0079,190.4063 39.6954,191.4844 Q40.3829,192.5469 41.7266,192.5469 Q42.3516,192.5469 42.9454,192.2813 Q43.5391,192 44.1641,191.4219 L44.1641,194.1406 Z " fill="#000000"/><text fill="#000000" font-family="sans-serif" font-size="14" lengthAdjust="spacing" textLength="123.1904" x="56.0166" y="193.3467">GrigliaIrregolare2</text><line style="stroke:#181818;stroke-width:0.5;" x1="23.5" x2="184.9023" y1="204.5" y2="204.5"/><line style="stroke:#181818;stroke-width:0.5;" x1="23.5" x2="184.9023" y1="212.5" y2="212.5"/><ellipse cx="33.5" cy="226.1484" fill="#84BE84" rx="3" ry="3" style="stroke:#038048;stroke-width:1.0;"/><text fill="#000000" font-family="sans-serif" font-size="14" lengthAdjust="spacing" text-decoration="underline" textLength="137.4023" x="42.5" y="229.4951">main(String[]): void</text></g></a><!--class GrigliaIrregolare3--><a href="GrigliaIrregolare3.html" target="_top" title="GrigliaIrregolare3.html" xlink:actuate="onRequest" xlink:href="GrigliaIrregolare3.html" xlink:show="new" xlink:title="GrigliaIrregolare3.html" xlink:type="simple"><g id="elem_GrigliaIrregolare3"><rect codeLine="20" fill="#F1F1F1" height="80.5938" id="GrigliaIrregolare3" rx="2.5" ry="2.5" style="stroke:#181818;stroke-width:0.5;" width="299.7861" x="204" y="164"/><ellipse cx="288.0479" cy="180" fill="#ADD1B2" rx="11" ry="11" style="stroke:#181818;stroke-width:1.0;"/><path d="M291.0166,185.6406 Q290.4385,185.9375 289.7979,186.0781 Q289.1572,186.2344 288.4541,186.2344 Q285.9541,186.2344 284.626,184.5938 Q283.3135,182.9375 283.3135,179.8125 Q283.3135,176.6875 284.626,175.0313 Q285.9541,173.375 288.4541,173.375 Q289.1572,173.375 289.7979,173.5313 Q290.4541,173.6875 291.0166,173.9844 L291.0166,176.7031 Q290.3916,176.125 289.7979,175.8594 Q289.2041,175.5781 288.5791,175.5781 Q287.2354,175.5781 286.5479,176.6563 Q285.8604,177.7188 285.8604,179.8125 Q285.8604,181.9063 286.5479,182.9844 Q287.2354,184.0469 288.5791,184.0469 Q289.2041,184.0469 289.7979,183.7813 Q290.3916,183.5 291.0166,182.9219 L291.0166,185.6406 Z " fill="#000000"/><text fill="#000000" font-family="sans-serif" font-size="14" lengthAdjust="spacing" textLength="123.1904" x="308.5479" y="184.8467">GrigliaIrregolare3</text><line style="stroke:#181818;stroke-width:0.5;" x1="205" x2="502.7861" y1="196" y2="196"/><line style="stroke:#181818;stroke-width:0.5;" x1="205" x2="502.7861" y1="204" y2="204"/><ellipse cx="215" cy="217.6484" fill="#84BE84" rx="3" ry="3" style="stroke:#038048;stroke-width:1.0;"/><text fill="#000000" font-family="sans-serif" font-size="14" lengthAdjust="spacing" text-decoration="underline" textLength="273.7861" x="224" y="220.9951">appartiene(int[], int[], int, int): boolean</text><ellipse cx="215" cy="233.9453" fill="#84BE84" rx="3" ry="3" style="stroke:#038048;stroke-width:1.0;"/><text fill="#000000" font-family="sans-serif" font-size="14" lengthAdjust="spacing" text-decoration="underline" textLength="137.4023" x="224" y="237.292">main(String[]): void</text></g></a><text fill="#888888" font-family="sans-serif" font-size="10" lengthAdjust="spacing" textLength="3.1787" x="249.9106" y="264.2822">&#160;</text><text fill="#888888" font-family="sans-serif" font-size="10" lengthAdjust="spacing" textLength="183.0908" x="159.9546" y="275.9229">UMLDoclet 2.2.0, PlantUML 1.2024.6</text><!--SRC=[jL9DImCn4BttLum7OOibj5kzx5aGGK4GJ-iUnksO3cOdosHQaDB_Rbf511VgvnpooCkRl3mc0017lQBl408-nvL1wiXGS9HF857UKu-A5XMgQhHdUsoVq1EmkPLmnsx1hjVeIxUSdi7cLRIhDc1ASA7i0-EbAlaOKEaKwlepwPRMXQR9_V2XDidGkDt22VRv7SOaLB1OtKmWmxY2XnW3eNodwms-TaE7BCMjAOklcwnUHrwyIxS7myw6miuEXVsbQJbaMlwpwNp8TFwZiVxvWBRxjIKnKdYCSGVtSdTzTHxRa3zvwKetdS1DGB7Cml6QD76KOlm2]--></g></svg>