<svg xmlns="http://www.w3.org/2000/svg" xmlns:xlink="http://www.w3.org/1999/xlink" contentStyleType="text/css" height="549px" preserveAspectRatio="none" style="width:659px;height:549px;background:#FFFFFF;" version="1.1" viewBox="0 0 659 549" width="659px" zoomAndPan="magnify"><defs/><g><!--cluster it.unimi.di.prog2.e09--><g id="cluster_it.unimi.di.prog2.e09"><path d="M16.5,4 L184.4883,4 A3.75,3.75 0 0 1 186.9883,6.5 L193.9883,26.2969 L543.5,26.2969 A2.5,2.5 0 0 1 546,28.7969 L546,513.5 A2.5,2.5 0 0 1 543.5,516 L16.5,516 A2.5,2.5 0 0 1 14,513.5 L14,6.5 A2.5,2.5 0 0 1 16.5,4 " fill="none" style="stroke:#000000;stroke-width:1.5;"/><line style="stroke:#000000;stroke-width:1.5;" x1="14" x2="193.9883" y1="26.2969" y2="26.2969"/><text fill="#000000" font-family="sans-serif" font-size="14" font-weight="bold" lengthAdjust="spacing" textLength="166.9883" x="18" y="18.9951">it.unimi.di.prog2.e09</text></g><!--cluster java.lang--><g id="cluster_java.lang"><path d="M556.5,69 L629.8721,69 A3.75,3.75 0 0 1 632.3721,71.5 L639.3721,91.2969 L649.5,91.2969 A2.5,2.5 0 0 1 652,93.7969 L652,149.5 A2.5,2.5 0 0 1 649.5,152 L556.5,152 A2.5,2.5 0 0 1 554,149.5 L554,71.5 A2.5,2.5 0 0 1 556.5,69 " fill="none" style="stroke:#000000;stroke-width:1.5;"/><line style="stroke:#000000;stroke-width:1.5;" x1="554" x2="639.3721" y1="91.2969" y2="91.2969"/><text fill="#000000" font-family="sans-serif" font-size="14" font-weight="bold" lengthAdjust="spacing" textLength="72.3721" x="558" y="83.9951">java.lang</text></g><!--class PolyClient--><a href="PolyClient.html" target="_top" title="PolyClient.html" xlink:actuate="onRequest" xlink:href="PolyClient.html" xlink:show="new" xlink:title="PolyClient.html" xlink:type="simple"><g id="elem_PolyClient"><rect codeLine="6" fill="#F1F1F1" height="48" id="PolyClient" rx="2.5" ry="2.5" style="stroke:#181818;stroke-width:0.5;" width="101.7129" x="268" y="96"/><ellipse cx="283" cy="112" fill="#ADD1B2" rx="11" ry="11" style="stroke:#181818;stroke-width:1.0;"/><path d="M285.9688,117.6406 Q285.3906,117.9375 284.75,118.0781 Q284.1094,118.2344 283.4063,118.2344 Q280.9063,118.2344 279.5781,116.5938 Q278.2656,114.9375 278.2656,111.8125 Q278.2656,108.6875 279.5781,107.0313 Q280.9063,105.375 283.4063,105.375 Q284.1094,105.375 284.75,105.5313 Q285.4063,105.6875 285.9688,105.9844 L285.9688,108.7031 Q285.3438,108.125 284.75,107.8594 Q284.1563,107.5781 283.5313,107.5781 Q282.1875,107.5781 281.5,108.6563 Q280.8125,109.7188 280.8125,111.8125 Q280.8125,113.9063 281.5,114.9844 Q282.1875,116.0469 283.5313,116.0469 Q284.1563,116.0469 284.75,115.7813 Q285.3438,115.5 285.9688,114.9219 L285.9688,117.6406 Z " fill="#000000"/><text fill="#000000" font-family="sans-serif" font-size="14" lengthAdjust="spacing" textLength="69.7129" x="297" y="116.8467">PolyClient</text><line style="stroke:#181818;stroke-width:0.5;" x1="269" x2="368.7129" y1="128" y2="128"/><line style="stroke:#181818;stroke-width:0.5;" x1="269" x2="368.7129" y1="136" y2="136"/></g></a><!--class SparsePolyClient--><a href="SparsePolyClient.html" target="_top" title="SparsePolyClient.html" xlink:actuate="onRequest" xlink:href="SparsePolyClient.html" xlink:show="new" xlink:title="SparsePolyClient.html" xlink:type="simple"><g id="elem_SparsePolyClient"><rect codeLine="8" fill="#F1F1F1" height="48" id="SparsePolyClient" rx="2.5" ry="2.5" style="stroke:#181818;stroke-width:0.5;" width="149.7285" x="388" y="96"/><ellipse cx="403" cy="112" fill="#ADD1B2" rx="11" ry="11" style="stroke:#181818;stroke-width:1.0;"/><path d="M405.9688,117.6406 Q405.3906,117.9375 404.75,118.0781 Q404.1094,118.2344 403.4063,118.2344 Q400.9063,118.2344 399.5781,116.5938 Q398.2656,114.9375 398.2656,111.8125 Q398.2656,108.6875 399.5781,107.0313 Q400.9063,105.375 403.4063,105.375 Q404.1094,105.375 404.75,105.5313 Q405.4063,105.6875 405.9688,105.9844 L405.9688,108.7031 Q405.3438,108.125 404.75,107.8594 Q404.1563,107.5781 403.5313,107.5781 Q402.1875,107.5781 401.5,108.6563 Q400.8125,109.7188 400.8125,111.8125 Q400.8125,113.9063 401.5,114.9844 Q402.1875,116.0469 403.5313,116.0469 Q404.1563,116.0469 404.75,115.7813 Q405.3438,115.5 405.9688,114.9219 L405.9688,117.6406 Z " fill="#000000"/><text fill="#000000" font-family="sans-serif" font-size="14" lengthAdjust="spacing" textLength="117.7285" x="417" y="116.8467">SparsePolyClient</text><line style="stroke:#181818;stroke-width:0.5;" x1="389" x2="536.7285" y1="128" y2="128"/><line style="stroke:#181818;stroke-width:0.5;" x1="389" x2="536.7285" y1="136" y2="136"/></g></a><!--class SparsePoly--><a href="SparsePoly.html" target="_top" title="SparsePoly.html" xlink:actuate="onRequest" xlink:href="SparsePoly.html" xlink:show="new" xlink:title="SparsePoly.html" xlink:type="simple"><g id="elem_SparsePoly"><rect codeLine="10" fill="#F1F1F1" height="178.375" id="SparsePoly" rx="2.5" ry="2.5" style="stroke:#181818;stroke-width:0.5;" width="226.8877" x="22.5" y="31"/><ellipse cx="93.0947" cy="47" fill="#ADD1B2" rx="11" ry="11" style="stroke:#181818;stroke-width:1.0;"/><path d="M96.0635,52.6406 Q95.4854,52.9375 94.8447,53.0781 Q94.2041,53.2344 93.501,53.2344 Q91.001,53.2344 89.6729,51.5938 Q88.3604,49.9375 88.3604,46.8125 Q88.3604,43.6875 89.6729,42.0313 Q91.001,40.375 93.501,40.375 Q94.2041,40.375 94.8447,40.5313 Q95.501,40.6875 96.0635,40.9844 L96.0635,43.7031 Q95.4385,43.125 94.8447,42.8594 Q94.251,42.5781 93.626,42.5781 Q92.2822,42.5781 91.5947,43.6563 Q90.9072,44.7188 90.9072,46.8125 Q90.9072,48.9063 91.5947,49.9844 Q92.2822,51.0469 93.626,51.0469 Q94.251,51.0469 94.8447,50.7813 Q95.4385,50.5 96.0635,49.9219 L96.0635,52.6406 Z " fill="#000000"/><text fill="#000000" font-family="sans-serif" font-size="14" lengthAdjust="spacing" textLength="77.1982" x="113.5947" y="51.8467">SparsePoly</text><line style="stroke:#181818;stroke-width:0.5;" x1="23.5" x2="248.3877" y1="63" y2="63"/><line style="stroke:#181818;stroke-width:0.5;" x1="23.5" x2="248.3877" y1="71" y2="71"/><ellipse cx="33.5" cy="84.6484" fill="#84BE84" rx="3" ry="3" style="stroke:#038048;stroke-width:1.0;"/><text fill="#000000" font-family="sans-serif" font-size="14" lengthAdjust="spacing" textLength="88.1221" x="42.5" y="87.9951">SparsePoly()</text><ellipse cx="33.5" cy="100.9453" fill="#84BE84" rx="3" ry="3" style="stroke:#038048;stroke-width:1.0;"/><text fill="#000000" font-family="sans-serif" font-size="14" lengthAdjust="spacing" textLength="133.5264" x="42.5" y="104.292">SparsePoly(int, int)</text><ellipse cx="33.5" cy="117.2422" fill="#84BE84" rx="3" ry="3" style="stroke:#038048;stroke-width:1.0;"/><text fill="#000000" font-family="sans-serif" font-size="14" lengthAdjust="spacing" textLength="91.3281" x="42.5" y="120.5889">coeff(int): int</text><ellipse cx="33.5" cy="133.5391" fill="#84BE84" rx="3" ry="3" style="stroke:#038048;stroke-width:1.0;"/><text fill="#000000" font-family="sans-serif" font-size="14" lengthAdjust="spacing" textLength="87.7119" x="42.5" y="136.8857">degree(): int</text><ellipse cx="33.5" cy="149.8359" fill="#84BE84" rx="3" ry="3" style="stroke:#038048;stroke-width:1.0;"/><text fill="#000000" font-family="sans-serif" font-size="14" lengthAdjust="spacing" textLength="200.8398" x="42.5" y="153.1826">add(SparsePoly): SparsePoly</text><ellipse cx="33.5" cy="166.1328" fill="#84BE84" rx="3" ry="3" style="stroke:#038048;stroke-width:1.0;"/><text fill="#000000" font-family="sans-serif" font-size="14" lengthAdjust="spacing" textLength="200.8877" x="42.5" y="169.4795">mul(SparsePoly): SparsePoly</text><ellipse cx="33.5" cy="182.4297" fill="#84BE84" rx="3" ry="3" style="stroke:#038048;stroke-width:1.0;"/><text fill="#000000" font-family="sans-serif" font-size="14" lengthAdjust="spacing" textLength="199.541" x="42.5" y="185.7764">sub(SparsePoly): SparsePoly</text><ellipse cx="33.5" cy="198.7266" fill="#84BE84" rx="3" ry="3" style="stroke:#038048;stroke-width:1.0;"/><text fill="#000000" font-family="sans-serif" font-size="14" lengthAdjust="spacing" textLength="139.8564" x="42.5" y="202.0732">minus(): SparsePoly</text></g></a><!--class SparsePoly.Term--><a href="SparsePoly.Term.html" target="_top" title="SparsePoly.Term.html" xlink:actuate="onRequest" xlink:href="SparsePoly.Term.html" xlink:show="new" xlink:title="SparsePoly.Term.html" xlink:type="simple"><g id="elem_SparsePoly.Term"><rect codeLine="21" fill="#F1F1F1" height="129.4844" id="SparsePoly.Term" rx="2.5" ry="2.5" style="stroke:#181818;stroke-width:0.5;" width="150.207" x="27" y="321.5"/><ellipse cx="42" cy="337.5" fill="#ADD1B2" rx="11" ry="11" style="stroke:#181818;stroke-width:1.0;"/><path d="M44.9688,343.1406 Q44.3906,343.4375 43.75,343.5781 Q43.1094,343.7344 42.4063,343.7344 Q39.9063,343.7344 38.5781,342.0938 Q37.2656,340.4375 37.2656,337.3125 Q37.2656,334.1875 38.5781,332.5313 Q39.9063,330.875 42.4063,330.875 Q43.1094,330.875 43.75,331.0313 Q44.4063,331.1875 44.9688,331.4844 L44.9688,334.2031 Q44.3438,333.625 43.75,333.3594 Q43.1563,333.0781 42.5313,333.0781 Q41.1875,333.0781 40.5,334.1563 Q39.8125,335.2188 39.8125,337.3125 Q39.8125,339.4063 40.5,340.4844 Q41.1875,341.5469 42.5313,341.5469 Q43.1563,341.5469 43.75,341.2813 Q44.3438,341 44.9688,340.4219 L44.9688,343.1406 Z " fill="#000000"/><text fill="#000000" font-family="sans-serif" font-size="14" lengthAdjust="spacing" textLength="118.207" x="56" y="342.3467">SparsePoly.Term</text><line style="stroke:#181818;stroke-width:0.5;" x1="28" x2="176.207" y1="353.5" y2="353.5"/><rect fill="none" height="6" style="stroke:#C82930;stroke-width:1.0;" width="6" x="35" y="364.1484"/><text fill="#000000" font-family="sans-serif" font-size="14" lengthAdjust="spacing" textLength="62.1523" x="47" y="370.4951">coeff: int</text><rect fill="none" height="6" style="stroke:#C82930;stroke-width:1.0;" width="6" x="35" y="380.4453"/><text fill="#000000" font-family="sans-serif" font-size="14" lengthAdjust="spacing" textLength="76.7881" x="47" y="386.792">degree: int</text><line style="stroke:#181818;stroke-width:0.5;" x1="28" x2="176.207" y1="394.0938" y2="394.0938"/><ellipse cx="38" cy="407.7422" fill="#84BE84" rx="3" ry="3" style="stroke:#038048;stroke-width:1.0;"/><text fill="#000000" font-family="sans-serif" font-size="14" lengthAdjust="spacing" textLength="92.8867" x="47" y="411.0889">Term(int, int)</text><ellipse cx="38" cy="424.0391" fill="#84BE84" rx="3" ry="3" style="stroke:#038048;stroke-width:1.0;"/><text fill="#000000" font-family="sans-serif" font-size="14" lengthAdjust="spacing" textLength="73.0762" x="47" y="427.3857">coeff(): int</text><ellipse cx="38" cy="440.3359" fill="#84BE84" rx="3" ry="3" style="stroke:#038048;stroke-width:1.0;"/><text fill="#000000" font-family="sans-serif" font-size="14" lengthAdjust="spacing" textLength="87.7119" x="47" y="443.6826">degree(): int</text></g></a><!--class Poly--><a href="Poly.html" target="_top" title="Poly.html" xlink:actuate="onRequest" xlink:href="Poly.html" xlink:show="new" xlink:title="Poly.html" xlink:type="simple"><g id="elem_Poly"><rect codeLine="29" fill="#F1F1F1" height="243.5625" id="Poly" rx="2.5" ry="2.5" style="stroke:#181818;stroke-width:0.5;" width="337.8213" x="195" y="264"/><ellipse cx="345.0693" cy="280" fill="#ADD1B2" rx="11" ry="11" style="stroke:#181818;stroke-width:1.0;"/><path d="M348.0381,285.6406 Q347.46,285.9375 346.8193,286.0781 Q346.1787,286.2344 345.4756,286.2344 Q342.9756,286.2344 341.6475,284.5938 Q340.335,282.9375 340.335,279.8125 Q340.335,276.6875 341.6475,275.0313 Q342.9756,273.375 345.4756,273.375 Q346.1787,273.375 346.8193,273.5313 Q347.4756,273.6875 348.0381,273.9844 L348.0381,276.7031 Q347.4131,276.125 346.8193,275.8594 Q346.2256,275.5781 345.6006,275.5781 Q344.2568,275.5781 343.5693,276.6563 Q342.8818,277.7188 342.8818,279.8125 Q342.8818,281.9063 343.5693,282.9844 Q344.2568,284.0469 345.6006,284.0469 Q346.2256,284.0469 346.8193,283.7813 Q347.4131,283.5 348.0381,282.9219 L348.0381,285.6406 Z " fill="#000000"/><text fill="#000000" font-family="sans-serif" font-size="14" lengthAdjust="spacing" textLength="29.1826" x="365.5693" y="284.8467">Poly</text><line style="stroke:#181818;stroke-width:0.5;" x1="196" x2="531.8213" y1="296" y2="296"/><rect fill="none" height="6" style="stroke:#C82930;stroke-width:1.0;" width="6" x="203" y="306.6484"/><text fill="#000000" font-family="sans-serif" font-size="14" lengthAdjust="spacing" textLength="79.1328" x="215" y="312.9951">terms: int[]</text><rect fill="none" height="6" style="stroke:#C82930;stroke-width:1.0;" width="6" x="203" y="322.9453"/><text fill="#000000" font-family="sans-serif" font-size="14" lengthAdjust="spacing" textLength="53.8057" x="215" y="329.292">deg: int</text><line style="stroke:#181818;stroke-width:0.5;" x1="196" x2="531.8213" y1="336.5938" y2="336.5938"/><ellipse cx="206" cy="350.2422" fill="#84BE84" rx="3" ry="3" style="stroke:#038048;stroke-width:1.0;"/><text fill="#000000" font-family="sans-serif" font-size="14" lengthAdjust="spacing" textLength="40.1064" x="215" y="353.5889">Poly()</text><ellipse cx="206" cy="366.5391" fill="#84BE84" rx="3" ry="3" style="stroke:#038048;stroke-width:1.0;"/><text fill="#000000" font-family="sans-serif" font-size="14" lengthAdjust="spacing" textLength="85.5107" x="215" y="369.8857">Poly(int, int)</text><rect fill="#F24D5C" height="6" style="stroke:#C82930;stroke-width:1.0;" width="6" x="203" y="379.8359"/><text fill="#000000" font-family="sans-serif" font-size="14" lengthAdjust="spacing" textLength="58.3584" x="215" y="386.1826">Poly(int)</text><ellipse cx="206" cy="399.1328" fill="#84BE84" rx="3" ry="3" style="stroke:#038048;stroke-width:1.0;"/><text fill="#000000" font-family="sans-serif" font-size="14" lengthAdjust="spacing" text-decoration="underline" textLength="311.8213" x="215" y="402.4795">monomialWithCoeffAndDegree(int, int): Poly</text><ellipse cx="206" cy="415.4297" fill="#84BE84" rx="3" ry="3" style="stroke:#038048;stroke-width:1.0;"/><text fill="#000000" font-family="sans-serif" font-size="14" lengthAdjust="spacing" textLength="87.7119" x="215" y="418.7764">degree(): int</text><ellipse cx="206" cy="431.7266" fill="#84BE84" rx="3" ry="3" style="stroke:#038048;stroke-width:1.0;"/><text fill="#000000" font-family="sans-serif" font-size="14" lengthAdjust="spacing" textLength="91.3281" x="215" y="435.0732">coeff(int): int</text><ellipse cx="206" cy="448.0234" fill="#84BE84" rx="3" ry="3" style="stroke:#038048;stroke-width:1.0;"/><text fill="#000000" font-family="sans-serif" font-size="14" lengthAdjust="spacing" textLength="104.8086" x="215" y="451.3701">add(Poly): Poly</text><ellipse cx="206" cy="464.3203" fill="#84BE84" rx="3" ry="3" style="stroke:#038048;stroke-width:1.0;"/><text fill="#000000" font-family="sans-serif" font-size="14" lengthAdjust="spacing" textLength="104.8564" x="215" y="467.667">mul(Poly): Poly</text><ellipse cx="206" cy="480.6172" fill="#84BE84" rx="3" ry="3" style="stroke:#038048;stroke-width:1.0;"/><text fill="#000000" font-family="sans-serif" font-size="14" lengthAdjust="spacing" textLength="103.5098" x="215" y="483.9639">sub(Poly): Poly</text><ellipse cx="206" cy="496.9141" fill="#84BE84" rx="3" ry="3" style="stroke:#038048;stroke-width:1.0;"/><text fill="#000000" font-family="sans-serif" font-size="14" lengthAdjust="spacing" textLength="91.8408" x="215" y="500.2607">minus(): Poly</text></g></a><!--class Record--><a href="https://docs.oracle.com/en/java/javase/17/docs/api/java.base/java/lang/Record.html?is-external=true" target="_top" title="https://docs.oracle.com/en/java/javase/17/docs/api/java.base/java/lang/Record.html?is-external=true" xlink:actuate="onRequest" xlink:href="https://docs.oracle.com/en/java/javase/17/docs/api/java.base/java/lang/Record.html?is-external=true" xlink:show="new" xlink:title="https://docs.oracle.com/en/java/javase/17/docs/api/java.base/java/lang/Record.html?is-external=true" xlink:type="simple"><g id="elem_Record"><rect codeLine="47" fill="#F1F1F1" height="48" id="Record" rx="2.5" ry="2.5" style="stroke:#181818;stroke-width:0.5;" width="81.2461" x="562.5" y="96"/><ellipse cx="577.5" cy="112" fill="#A9DCDF" rx="11" ry="11" style="stroke:#181818;stroke-width:1.0;"/><path d="M577.6094,107.3438 L576.4531,112.4219 L578.7813,112.4219 L577.6094,107.3438 Z M576.125,105.1094 L579.1094,105.1094 L582.4688,117.5 L580.0156,117.5 L579.25,114.4375 L575.9688,114.4375 L575.2188,117.5 L572.7813,117.5 L576.125,105.1094 Z " fill="#000000"/><text fill="#000000" font-family="sans-serif" font-size="14" font-style="italic" lengthAdjust="spacing" textLength="49.2461" x="591.5" y="116.8467">Record</text><line style="stroke:#181818;stroke-width:0.5;" x1="563.5" x2="642.7461" y1="128" y2="128"/><line style="stroke:#181818;stroke-width:0.5;" x1="563.5" x2="642.7461" y1="136" y2="136"/></g></a><polygon fill="#181818" points="91.9272,321.4792,95.0274,312.131,91.438,316.5032,87.0658,312.9137,91.9272,321.4792" style="stroke:#181818;stroke-width:1.0;"/><path d="M98.2816,209.0405 C96.5905,215.0479 95.1321,221.0697 94,227 C88.129,257.7555 88.4862,286.4801 91.3401,315.508 " fill="none" style="stroke:#181818;stroke-width:1.0;"/><text fill="#000000" font-family="sans-serif" font-size="13" lengthAdjust="spacing" textLength="37.8765" x="96" y="241.0669">terms</text><text fill="#000000" font-family="sans-serif" font-size="13" lengthAdjust="spacing" textLength="6.5" x="84.9272" y="317.5461">*</text><polygon fill="none" points="595.4915,144.1099,583.4037,158.7347,594.5962,163.0624,595.4915,144.1099" style="stroke:#181818;stroke-width:1.0;"/><path d="M589,160.8985 C581.0709,181.4049 572.9805,193.6353 550,209 C413.986,299.9382 324.8861,177.5117 186,264 C163.8581,277.7884 146.0253,299.7982 132.5829,321.2891 " fill="none" style="stroke:#181818;stroke-width:1.0;"/><ellipse cx="137.4675" cy="217.2495" fill="#FFFFFF" rx="8" ry="8" style="stroke:#181818;stroke-width:1.0;"/><line style="stroke:#181818;stroke-width:1.0;" x1="137.1617" x2="137.7733" y1="225.2437" y2="209.2554"/><line style="stroke:#181818;stroke-width:1.0;" x1="129.4733" x2="145.4616" y1="216.9437" y2="217.5553"/><path d="M137.1617,225.2437 C136.6886,237.6111 136.4354,234.1505 135,246 C131.9875,270.8689 126.2155,297.7508 120.3302,321.1862 " fill="none" style="stroke:#181818;stroke-width:1.0;"/><text fill="#888888" font-family="sans-serif" font-size="10" lengthAdjust="spacing" textLength="3.1787" x="319.9106" y="527.2822">&#160;</text><text fill="#888888" font-family="sans-serif" font-size="10" lengthAdjust="spacing" textLength="183.0908" x="229.9546" y="538.9229">UMLDoclet 2.2.0, PlantUML 1.2024.6</text><!--SRC=[bLJBRjim4BpdAxO12iX9HAM-52NwG94SMo3e0pquEgobjSnM8WMI2Xga_lUGj19RDkseEaZWxd2uEpiY0C2hLcFL8DHuhpeBfY6B4azS1WovDRMeqIeDd9-4Q8l57wm8X6MT58rWfM2jLjMKqUKxU5Y3_5FKQ0pSgFh-gXOaBSnccmLRsgREyrtqTtUQeS6UtT2BEmTxUhIh2xQUymqWcHpC26almBrs48MYnS8d9zndXycIAasKn59Obic6tI4sYo6mwUfnGDFDHp8AsPaa3bWTLfBz8DqCvVIHkAPfq6M_xtGjIKGGptLSvF4AhsA-wnrte5xhZZU1PPRlLHmvEEQM8pv9dtB3y8EnQ4MnSaDHKZK2wr_2BgzykvzbURrkxfcHm_umZrZig3Mz_tgVn3rtCEbzTdZdaxTYhbeDxupVU8UiHbbjpGBdnceiR3-tRrGeNRh9BQrj3S-oKXM6AOUeYHMgoKXcdYQy36LltWP4Xgq88JRtqO3m1sLhlc21JyAazDUDNMBzmUgEydoxoEY5nldMnPAc7-7qxFHbPFXDE0I71UxdnZdl6tp_Bqr74esixlp_20jtbvA6XLB-Soj_VlrohPp85gPioYuluCRLQrqKNj-HDaB9PF88]--></g></svg>